<?xml version="1.0" encoding="UTF-8" standalone="no"?>
<!DOCTYPE svg PUBLIC "-//W3C//DTD SVG 1.1//EN"
 "http://www.w3.org/Graphics/SVG/1.1/DTD/svg11.dtd">
<!-- Generated by graphviz version 2.43.0 (0)
 -->
<!-- Title: %3 Pages: 1 -->
<svg width="338pt" height="364pt"
 viewBox="0.00 0.00 337.51 363.61" xmlns="http://www.w3.org/2000/svg" xmlns:xlink="http://www.w3.org/1999/xlink">
<g id="graph0" class="graph" transform="scale(1 1) rotate(0) translate(4 359.61)">
<title>%3</title>
<polygon fill="white" stroke="transparent" points="-4,4 -4,-359.61 333.51,-359.61 333.51,4 -4,4"/>
<!-- 0 -->
<g id="node1" class="node">
<title>0</title>
<ellipse fill="none" stroke="black" cx="164.76" cy="-275.71" rx="164.51" ry="79.81"/>
<text text-anchor="middle" x="164.76" y="-317.01" font-family="Times,serif" font-size="14.00">Maximize: Depth 2, Utility: &#45;3 </text>
<text text-anchor="middle" x="164.76" y="-302.01" font-family="Times,serif" font-size="14.00">XEXXXXO</text>
<text text-anchor="middle" x="164.76" y="-287.01" font-family="Times,serif" font-size="14.00">XOOXOOO</text>
<text text-anchor="middle" x="164.76" y="-272.01" font-family="Times,serif" font-size="14.00">XXXXXOO</text>
<text text-anchor="middle" x="164.76" y="-257.01" font-family="Times,serif" font-size="14.00">XOOOOXO</text>
<text text-anchor="middle" x="164.76" y="-242.01" font-family="Times,serif" font-size="14.00">XXXXOOO</text>
<text text-anchor="middle" x="164.76" y="-227.01" font-family="Times,serif" font-size="14.00">XOXOOOO</text>
</g>
<!-- 1 -->
<g id="node2" class="node">
<title>1</title>
<ellipse fill="none" stroke="black" cx="164.76" cy="-79.9" rx="137.77" ry="79.81"/>
<text text-anchor="middle" x="164.76" y="-121.2" font-family="Times,serif" font-size="14.00">Leaf: Depth 1, Utility: &#45;3 </text>
<text text-anchor="middle" x="164.76" y="-106.2" font-family="Times,serif" font-size="14.00">XOXXXXO</text>
<text text-anchor="middle" x="164.76" y="-91.2" font-family="Times,serif" font-size="14.00">XOOXOOO</text>
<text text-anchor="middle" x="164.76" y="-76.2" font-family="Times,serif" font-size="14.00">XXXXXOO</text>
<text text-anchor="middle" x="164.76" y="-61.2" font-family="Times,serif" font-size="14.00">XOOOOXO</text>
<text text-anchor="middle" x="164.76" y="-46.2" font-family="Times,serif" font-size="14.00">XXXXOOO</text>
<text text-anchor="middle" x="164.76" y="-31.2" font-family="Times,serif" font-size="14.00">XOXOOOO</text>
</g>
<!-- 0&#45;&gt;1 -->
<g id="edge1" class="edge">
<title>0&#45;&gt;1</title>
<path fill="none" stroke="black" d="M164.76,-195.6C164.76,-187.27 164.76,-178.75 164.76,-170.31"/>
<polygon fill="black" stroke="black" points="168.26,-170.07 164.76,-160.07 161.26,-170.07 168.26,-170.07"/>
</g>
</g>
</svg>
