<?xml version="1.0" encoding="UTF-8" standalone="no"?>
<!DOCTYPE svg PUBLIC "-//W3C//DTD SVG 1.1//EN"
 "http://www.w3.org/Graphics/SVG/1.1/DTD/svg11.dtd">
<!-- Generated by graphviz version 12.2.0 (20241103.1931)
 -->
<!-- Pages: 1 -->
<svg width="280pt" height="465pt"
 viewBox="0.00 0.00 279.88 465.31" xmlns="http://www.w3.org/2000/svg" xmlns:xlink="http://www.w3.org/1999/xlink">
<g id="graph0" class="graph" transform="scale(1 1) rotate(0) translate(4 461.31)">
<polygon fill="white" stroke="none" points="-4,4 -4,-461.31 275.88,-461.31 275.88,4 -4,4"/>
<!-- 0 -->
<g id="node1" class="node">
<title>0</title>
<ellipse fill="none" stroke="black" cx="135.94" cy="-369.98" rx="135.94" ry="87.33"/>
<text text-anchor="middle" x="135.94" y="-414.43" font-family="Times New Roman,serif" font-size="14.00">Maximize: Depth 4, Utility: inf </text>
<text text-anchor="middle" x="135.94" y="-397.93" font-family="Times New Roman,serif" font-size="14.00">XXXOXEX</text>
<text text-anchor="middle" x="135.94" y="-381.43" font-family="Times New Roman,serif" font-size="14.00">XOXOOOO</text>
<text text-anchor="middle" x="135.94" y="-364.93" font-family="Times New Roman,serif" font-size="14.00">XXXOXOO</text>
<text text-anchor="middle" x="135.94" y="-348.43" font-family="Times New Roman,serif" font-size="14.00">XXOOOOX</text>
<text text-anchor="middle" x="135.94" y="-331.93" font-family="Times New Roman,serif" font-size="14.00">XXXOOOO</text>
<text text-anchor="middle" x="135.94" y="-315.43" font-family="Times New Roman,serif" font-size="14.00">XXOOOXX</text>
</g>
<!-- 1 -->
<g id="node2" class="node">
<title>1</title>
<ellipse fill="none" stroke="black" cx="135.94" cy="-228.66" rx="115.33" ry="18"/>
<text text-anchor="middle" x="135.94" y="-223.61" font-family="Times New Roman,serif" font-size="14.00">Chance: Depth 3, Utility:inf</text>
</g>
<!-- 0&#45;&gt;1 -->
<g id="edge1" class="edge">
<title>0&#45;&gt;1</title>
<path fill="none" stroke="black" d="M135.94,-282.33C135.94,-273.68 135.94,-265.4 135.94,-258.07"/>
<polygon fill="black" stroke="black" points="139.44,-258.26 135.94,-248.26 132.44,-258.26 139.44,-258.26"/>
</g>
<!-- 2 -->
<g id="node3" class="node">
<title>2</title>
<ellipse fill="none" stroke="black" cx="135.94" cy="-87.33" rx="131.7" ry="87.33"/>
<text text-anchor="middle" x="135.94" y="-131.78" font-family="Times New Roman,serif" font-size="14.00">Minimize: Depth 2, Utility:inf </text>
<text text-anchor="middle" x="135.94" y="-115.28" font-family="Times New Roman,serif" font-size="14.00">XXXOXOX</text>
<text text-anchor="middle" x="135.94" y="-98.78" font-family="Times New Roman,serif" font-size="14.00">XOXOOOO</text>
<text text-anchor="middle" x="135.94" y="-82.28" font-family="Times New Roman,serif" font-size="14.00">XXXOXOO</text>
<text text-anchor="middle" x="135.94" y="-65.78" font-family="Times New Roman,serif" font-size="14.00">XXOOOOX</text>
<text text-anchor="middle" x="135.94" y="-49.28" font-family="Times New Roman,serif" font-size="14.00">XXXOOOO</text>
<text text-anchor="middle" x="135.94" y="-32.78" font-family="Times New Roman,serif" font-size="14.00">XXOOOXX</text>
</g>
<!-- 1&#45;&gt;2 -->
<g id="edge2" class="edge">
<title>1&#45;&gt;2</title>
<path fill="none" stroke="black" d="M135.94,-210.29C135.94,-203.55 135.94,-195.27 135.94,-186.22"/>
<polygon fill="black" stroke="black" points="139.44,-186.37 135.94,-176.37 132.44,-186.37 139.44,-186.37"/>
</g>
</g>
</svg>
