<?xml version="1.0" encoding="UTF-8" standalone="no"?>
<!DOCTYPE svg PUBLIC "-//W3C//DTD SVG 1.1//EN"
 "http://www.w3.org/Graphics/SVG/1.1/DTD/svg11.dtd">
<!-- Generated by graphviz version 2.43.0 (0)
 -->
<!-- Title: %3 Pages: 1 -->
<svg width="352pt" height="559pt"
 viewBox="0.00 0.00 351.65 559.42" xmlns="http://www.w3.org/2000/svg" xmlns:xlink="http://www.w3.org/1999/xlink">
<g id="graph0" class="graph" transform="scale(1 1) rotate(0) translate(4 555.42)">
<title>%3</title>
<polygon fill="white" stroke="transparent" points="-4,4 -4,-555.42 347.65,-555.42 347.65,4 -4,4"/>
<!-- 0 -->
<g id="node1" class="node">
<title>0</title>
<ellipse fill="none" stroke="black" cx="171.83" cy="-471.52" rx="171.65" ry="79.81"/>
<text text-anchor="middle" x="171.83" y="-512.82" font-family="Times,serif" font-size="14.00">Maximize: Depth 3, Utility: &#45;inf </text>
<text text-anchor="middle" x="171.83" y="-497.82" font-family="Times,serif" font-size="14.00">OEOOOXX</text>
<text text-anchor="middle" x="171.83" y="-482.82" font-family="Times,serif" font-size="14.00">XEXOXXX</text>
<text text-anchor="middle" x="171.83" y="-467.82" font-family="Times,serif" font-size="14.00">OOOXOXX</text>
<text text-anchor="middle" x="171.83" y="-452.82" font-family="Times,serif" font-size="14.00">OOXOXOX</text>
<text text-anchor="middle" x="171.83" y="-437.82" font-family="Times,serif" font-size="14.00">OXOXXXO</text>
<text text-anchor="middle" x="171.83" y="-422.82" font-family="Times,serif" font-size="14.00">OXOOXXO</text>
</g>
<!-- 1 -->
<g id="node2" class="node">
<title>1</title>
<ellipse fill="none" stroke="black" cx="171.83" cy="-275.71" rx="166.75" ry="79.81"/>
<text text-anchor="middle" x="171.83" y="-317.01" font-family="Times,serif" font-size="14.00">Minimize: Depth 2, Utility:&#45;inf </text>
<text text-anchor="middle" x="171.83" y="-302.01" font-family="Times,serif" font-size="14.00">OEOOOXX</text>
<text text-anchor="middle" x="171.83" y="-287.01" font-family="Times,serif" font-size="14.00">XOXOXXX</text>
<text text-anchor="middle" x="171.83" y="-272.01" font-family="Times,serif" font-size="14.00">OOOXOXX</text>
<text text-anchor="middle" x="171.83" y="-257.01" font-family="Times,serif" font-size="14.00">OOXOXOX</text>
<text text-anchor="middle" x="171.83" y="-242.01" font-family="Times,serif" font-size="14.00">OXOXXXO</text>
<text text-anchor="middle" x="171.83" y="-227.01" font-family="Times,serif" font-size="14.00">OXOOXXO</text>
</g>
<!-- 0&#45;&gt;1 -->
<g id="edge1" class="edge">
<title>0&#45;&gt;1</title>
<path fill="none" stroke="black" d="M171.83,-391.41C171.83,-383.07 171.83,-374.56 171.83,-366.12"/>
<polygon fill="black" stroke="black" points="175.33,-365.88 171.83,-355.88 168.33,-365.88 175.33,-365.88"/>
</g>
<!-- 2 -->
<g id="node3" class="node">
<title>2</title>
<ellipse fill="none" stroke="black" cx="171.83" cy="-79.9" rx="171.65" ry="79.81"/>
<text text-anchor="middle" x="171.83" y="-121.2" font-family="Times,serif" font-size="14.00">Maximize: Depth 1, Utility: &#45;inf </text>
<text text-anchor="middle" x="171.83" y="-106.2" font-family="Times,serif" font-size="14.00">OXOOOXX</text>
<text text-anchor="middle" x="171.83" y="-91.2" font-family="Times,serif" font-size="14.00">XOXOXXX</text>
<text text-anchor="middle" x="171.83" y="-76.2" font-family="Times,serif" font-size="14.00">OOOXOXX</text>
<text text-anchor="middle" x="171.83" y="-61.2" font-family="Times,serif" font-size="14.00">OOXOXOX</text>
<text text-anchor="middle" x="171.83" y="-46.2" font-family="Times,serif" font-size="14.00">OXOXXXO</text>
<text text-anchor="middle" x="171.83" y="-31.2" font-family="Times,serif" font-size="14.00">OXOOXXO</text>
</g>
<!-- 1&#45;&gt;2 -->
<g id="edge2" class="edge">
<title>1&#45;&gt;2</title>
<path fill="none" stroke="black" d="M171.83,-195.6C171.83,-187.27 171.83,-178.75 171.83,-170.31"/>
<polygon fill="black" stroke="black" points="175.33,-170.07 171.83,-160.07 168.33,-170.07 175.33,-170.07"/>
</g>
</g>
</svg>
