<?xml version="1.0" encoding="UTF-8" standalone="no"?>
<!DOCTYPE svg PUBLIC "-//W3C//DTD SVG 1.1//EN"
 "http://www.w3.org/Graphics/SVG/1.1/DTD/svg11.dtd">
<!-- Generated by graphviz version 2.43.0 (0)
 -->
<!-- Title: %3 Pages: 1 -->
<svg width="346pt" height="559pt"
 viewBox="0.00 0.00 346.00 559.42" xmlns="http://www.w3.org/2000/svg" xmlns:xlink="http://www.w3.org/1999/xlink">
<g id="graph0" class="graph" transform="scale(1 1) rotate(0) translate(4 555.42)">
<title>%3</title>
<polygon fill="white" stroke="transparent" points="-4,4 -4,-555.42 342,-555.42 342,4 -4,4"/>
<!-- 0 -->
<g id="node1" class="node">
<title>0</title>
<ellipse fill="none" stroke="black" cx="169" cy="-471.52" rx="163.18" ry="79.81"/>
<text text-anchor="middle" x="169" y="-512.82" font-family="Times,serif" font-size="14.00">Minimize: Depth 4, Utility:inf </text>
<text text-anchor="middle" x="169" y="-497.82" font-family="Times,serif" font-size="14.00">XXOOXEX</text>
<text text-anchor="middle" x="169" y="-482.82" font-family="Times,serif" font-size="14.00">OOXXXEO</text>
<text text-anchor="middle" x="169" y="-467.82" font-family="Times,serif" font-size="14.00">OXOXOOO</text>
<text text-anchor="middle" x="169" y="-452.82" font-family="Times,serif" font-size="14.00">XOXXXXX</text>
<text text-anchor="middle" x="169" y="-437.82" font-family="Times,serif" font-size="14.00">OXOOOOO</text>
<text text-anchor="middle" x="169" y="-422.82" font-family="Times,serif" font-size="14.00">XXOXOXX</text>
</g>
<!-- 1 -->
<g id="node2" class="node">
<title>1</title>
<ellipse fill="none" stroke="black" cx="169" cy="-275.71" rx="169" ry="79.81"/>
<text text-anchor="middle" x="169" y="-317.01" font-family="Times,serif" font-size="14.00">Maximize: Depth 3, Utility: inf </text>
<text text-anchor="middle" x="169" y="-302.01" font-family="Times,serif" font-size="14.00">XXOOXEX</text>
<text text-anchor="middle" x="169" y="-287.01" font-family="Times,serif" font-size="14.00">OOXXXXO</text>
<text text-anchor="middle" x="169" y="-272.01" font-family="Times,serif" font-size="14.00">OXOXOOO</text>
<text text-anchor="middle" x="169" y="-257.01" font-family="Times,serif" font-size="14.00">XOXXXXX</text>
<text text-anchor="middle" x="169" y="-242.01" font-family="Times,serif" font-size="14.00">OXOOOOO</text>
<text text-anchor="middle" x="169" y="-227.01" font-family="Times,serif" font-size="14.00">XXOXOXX</text>
</g>
<!-- 0&#45;&gt;1 -->
<g id="edge1" class="edge">
<title>0&#45;&gt;1</title>
<path fill="none" stroke="black" d="M169,-391.41C169,-383.07 169,-374.56 169,-366.12"/>
<polygon fill="black" stroke="black" points="172.5,-365.88 169,-355.88 165.5,-365.88 172.5,-365.88"/>
</g>
<!-- 2 -->
<g id="node3" class="node">
<title>2</title>
<ellipse fill="none" stroke="black" cx="169" cy="-79.9" rx="163.18" ry="79.81"/>
<text text-anchor="middle" x="169" y="-121.2" font-family="Times,serif" font-size="14.00">Minimize: Depth 2, Utility:inf </text>
<text text-anchor="middle" x="169" y="-106.2" font-family="Times,serif" font-size="14.00">XXOOXOX</text>
<text text-anchor="middle" x="169" y="-91.2" font-family="Times,serif" font-size="14.00">OOXXXXO</text>
<text text-anchor="middle" x="169" y="-76.2" font-family="Times,serif" font-size="14.00">OXOXOOO</text>
<text text-anchor="middle" x="169" y="-61.2" font-family="Times,serif" font-size="14.00">XOXXXXX</text>
<text text-anchor="middle" x="169" y="-46.2" font-family="Times,serif" font-size="14.00">OXOOOOO</text>
<text text-anchor="middle" x="169" y="-31.2" font-family="Times,serif" font-size="14.00">XXOXOXX</text>
</g>
<!-- 1&#45;&gt;2 -->
<g id="edge2" class="edge">
<title>1&#45;&gt;2</title>
<path fill="none" stroke="black" d="M169,-195.6C169,-187.27 169,-178.75 169,-170.31"/>
<polygon fill="black" stroke="black" points="172.5,-170.07 169,-160.07 165.5,-170.07 172.5,-170.07"/>
</g>
</g>
</svg>
